<svg id="Layer_2" data-name="Layer 2" xmlns="http://www.w3.org/2000/svg" xmlns:xlink="http://www.w3.org/1999/xlink" viewBox="0 0 400 300" width="406" height="306" class="illustration styles_illustrationTablet__1DWOa"><defs><linearGradient id="linear-gradient" x1="134.72" y1="251.23" x2="150.42" y2="225.84" gradientUnits="userSpaceOnUse"><stop offset="0" stop-color="#8383ea"></stop><stop offset="1" stop-color="#7f3cdd"></stop></linearGradient><linearGradient id="linear-gradient-2" x1="127.75" y1="234.11" x2="181.02" y2="172.3" gradientTransform="translate(-3.41 2.42) rotate(-0.97)" gradientUnits="userSpaceOnUse"><stop offset="0.01" stop-color="#fff" stop-opacity="0"></stop><stop offset="1" stop-color="#006d9d"></stop></linearGradient><linearGradient id="linear-gradient-3" x1="195.09" y1="9.22" x2="189.97" y2="156.09" gradientUnits="userSpaceOnUse"><stop offset="0" stop-color="#ffeed9" stop-opacity="0"></stop><stop offset="1" stop-color="#68e1fd"></stop></linearGradient></defs><title>PP</title><path d="M193.6,288.75,13.87,182.54C8.15,179.32,3.24,174,8.82,170.59l180.37-104c2.71-1.68,6.82-2.78,9.57-1.18L387.42,175c5.72,3.32,6.75,12.6,1,15.93L217.29,288.58A23.9,23.9,0,0,1,193.6,288.75Z" fill="#8383ea"></path><polyline points="261.68 226.99 173.82 276.3 51.83 204.2 124.04 165.05" fill="url(#linear-gradient)"></polyline><path d="M276.41,175.89c-15.72-14.54-47.61-24.49-84.4-24.49s-68.67,9.95-84.4,24.49H97.19v20.55c0,24.87,42.45,45,94.82,45s94.82-20.16,94.82-45V175.89Z" fill="#00B8AB"></path><path d="M276.41,175.89c-15.72-14.54-47.61-24.49-84.4-24.49s-68.67,9.95-84.4,24.49H97.19v20.55c0,24.87,42.45,45,94.82,45s94.82-20.16,94.82-45V175.89Z" fill="#1b4075" opacity="0.47"></path><ellipse cx="192.01" cy="175.89" rx="94.82" ry="45.03" fill="#00B8AB"></ellipse><ellipse cx="191.33" cy="172.04" rx="31.15" ry="14.12" fill="#6d6d9b"></ellipse><path d="M192,214.48c-44.54,0-80.77-18.17-80.77-40.5s36.23-40.5,80.77-40.5,80.77,18.17,80.77,40.5S236.55,214.48,192,214.48Zm0-80.12c-44.07,0-79.92,17.77-79.92,39.62s35.85,39.62,79.92,39.62,79.92-17.77,79.92-39.62S236.08,134.36,192,134.36Z" fill="#6d6d9b"></path><path d="M150.85,200.19c-16.85-5.94-27.78-15.43-27.78-26.09,0-9.25,8.23-17.6,21.39-23.53l-.52-.52c-13.29,6.06-21.6,14.6-21.6,24.05,0,10.95,11.12,20.67,28.25,26.74Z" fill="#6d6d9b"></path><path d="M240.21,197.34c-12.44,5.75-29.45,9.31-48.2,9.31-2.15,0-4.28-.06-6.38-.16,0,.24,0,.49,0,.73,2.1.09,4.21.15,6.36.15,19,0,36.31-3.67,48.9-9.6Z" fill="#6d6d9b"></path><path d="M261,174.1a17.78,17.78,0,0,1-3.66,10.45l.65.29a18.34,18.34,0,0,0,3.74-10.74c0-15.66-22.76-28.82-53.31-32.34l-.2.71C238.41,145.91,261,158.78,261,174.1Z" fill="#6d6d9b"></path><path d="M192,195.49c-27,0-49-10.52-49-23.44s22-23.44,49-23.44,49,10.52,49,23.44S219,195.49,192,195.49Zm0-45.89c-26.46,0-48,10.07-48,22.44s21.53,22.44,48,22.44,48-10.07,48-22.44S218.47,149.6,192,149.6Z" fill="#6d6d9b"></path><path d="M165.23,158,124,182.69A4.44,4.44,0,0,1,126.3,185c4.39,9.18,13,15.7,21.5,20.94a61.7,61.7,0,0,0,22.36,8.56c20.13-13.79,47-32.18,50.6-34.47l6.29-18.14Z" opacity="0.48" fill="url(#linear-gradient-2)"></path><path d="M229.6,136.43s-1.34,34.6-2.46,38.19-11.65,15.23-39.43,10.3-2.24-84.68-2.24-84.68" fill="#1b4075"></path><path d="M198.94,54.56s42.68,1.59,48.39,35.5-16,59-50.8,58.25" fill="#1b4075"></path><path d="M148.24,89.78s-2.7,13.37-1.58,20.65-2.8,20.76-.27,31.08,6.46,34.88,18.65,35.63S209.09,172,216.4,158s27.37-59.73,15.18-80.46-30.91-27.06-53-20.93C159,62,149.39,82.65,148.24,89.78Z" fill="#00B8AB"></path><path d="M247.33,90.06A37.93,37.93,0,0,0,231.13,65a57.78,57.78,0,0,0-17-7.78c-12.7.69-25.4,4.35-35.87,11.73a48.46,48.46,0,0,0-13.6,14.35c-4.35,7.18-5.35,14.31-5.06,22.59.25,7.11.41,14.43-3.26,20.81-1.94,3.36-5,5.69-4.29,9.81.64,4,6.63,5.24,6.6,9-.07,8.78.52,22.82,3.56,28.46,3.15,5.84,18,2,18,2,8.52-.53,30.6-7.13,36.28-18,1.8-3.45,4.37-8.83,7-15.27C241.72,133.54,251.37,114,247.33,90.06Z" fill="#ffcba4"></path><path d="M184.94,54.86s-36.55,12-24.59,30.83,72.51-19.36,72.51-19.36S216.78,51.21,184.94,54.86Z" fill="#fff" opacity="0.78"></path><path d="M233.11,101.82a16.68,16.68,0,0,0-4.21-.56c-17.17-.11-28.8,16.57-26.42,32.76,1.35,9.19,7.83,17.7,18,16.24,14.24-2.06,26-23.45,23.49-36.85A14.7,14.7,0,0,0,233.11,101.82Z" fill="#00B8AB"></path><path d="M233.11,101.82a16.68,16.68,0,0,0-4.21-.56c-17.17-.11-28.8,16.57-26.42,32.76,1.35,9.19,7.83,17.7,18,16.24,14.24-2.06,26-23.45,23.49-36.85A14.7,14.7,0,0,0,233.11,101.82Z" fill="#1b4075" opacity="0.47"></path><path d="M236.56,103.11a16.68,16.68,0,0,0-4.21-.56c-17.17-.11-28.8,16.57-26.42,32.76,1.35,9.19,7.83,17.7,18,16.24,14.24-2.06,26-23.45,23.49-36.85A14.7,14.7,0,0,0,236.56,103.11Z" fill="#00B8AB"></path><path d="M172.76,115.21c-1.6-.18-3.44,0-4.41,1.45a9.6,9.6,0,0,0-.84,2.5c-.07.21-.48.24-.61.45s-.26,1.5.22,1.73a1,1,0,0,0,.57,0c.7-.09,2.14,1.27,2.79,1.6a15.58,15.58,0,0,0,4.85,1.37c5,.7,9.57-3.19,9.57-3.19C181.85,120.74,177.89,115.79,172.76,115.21Z" fill="#fff"></path><path d="M184.48,120.8c-3.26-2.46-6.74-5.13-10.83-6-3.41-.71-5.24.73-6.55,3.77-.25.58.61,1.09.86.5.77-1.78,1.83-3.52,4.06-3.5a7.18,7.18,0,0,1,1.22.13,4.65,4.65,0,0,0-2.25,4,4.3,4.3,0,1,0,8.57,0,4.81,4.81,0,0,0-.22-1.39c1.61,1,3.13,2.14,4.64,3.28C184.49,122,185,121.18,184.48,120.8Z" fill="#1b4075"></path><path d="M167.06,102.55s-1.13,3.34.83,4,7.13-.84,11,.57,10.51,6.37,10.89,6.26-3.88-6.73-8.28-8.56S167.06,102.55,167.06,102.55Z" fill="#1b4075"></path><path d="M159.07,157.9a5.57,5.57,0,0,0,1.26,0c2.6-.37,4.55-2.33,6.91-3.34a19.75,19.75,0,0,1,6.68-1.24c-1.53-.24-4.63-.71-6.88-1-3.09-.38-3-2.63-4.88-3.7s-3.53,1.7-3.53,1.7l-1.4-1.71c-1.46-1.77-5,.83-5,2.64C152.23,154.21,156.34,157.68,159.07,157.9Z" fill="#1b4075"></path><path d="M146.67,110.43c0,.17,4.62,1.68,5,1.85,2.82,1.29,3.82,2.62,3.71,5.92-.11,3-7.24-.92-8.61-1.61Z" fill="#1b4075"></path><path d="M225.44,92.51l-1.79-6.12a5.83,5.83,0,0,1,2.65-6.66h0a5.83,5.83,0,0,1,8.42,3l2.15,5.92a5.83,5.83,0,0,1-2.69,7.11l-.37.2A5.83,5.83,0,0,1,225.44,92.51Z" fill="#fff"></path><path d="M97.19,18.48V175.89c0,24.87,42.45,45,94.82,45s94.82-20.16,94.82-45V18.48Z" opacity="0.38" fill="url(#linear-gradient-3)"></path><ellipse cx="257.57" cy="184.43" rx="4.11" ry="2.18" fill="#1b4075"></ellipse><ellipse cx="185.75" cy="206.38" rx="4.11" ry="2.18" fill="#1b4075"></ellipse><ellipse cx="143.03" cy="150.05" rx="4.11" ry="2.18" fill="#1b4075"></ellipse><ellipse cx="151.55" cy="200.21" rx="3.05" ry="1.57" fill="#1b4075"></ellipse><ellipse cx="240.29" cy="197.34" rx="2.68" ry="1.52" fill="#1b4075"></ellipse><path d="M225.86,101.57a2.52,2.52,0,0,1,.32,0l.49,0c-.18-14-3.91-26-15.44-35.26a50,50,0,0,0-28.06-11c-4.24.81-7.87,2.57-11.84,4.19a2,2,0,0,0,1.66.39c12.93-2.54,26.58,1.78,36.57,10.21,10.15,8.57,13,19.46,13.11,32.12A20.52,20.52,0,0,1,225.86,101.57Z" fill="#1b4075"></path></svg>